<svg xmlns="http://www.w3.org/2000/svg" viewBox="0 0 40.12 46.26">
  <defs>
    <style>
      .cls-1 {
        fill: #85cbf8;
      }

      .cls-2 {
        fill: #c5e4fa;
      }

      .cls-3 {
        fill: #1ca4f6;
      }

      .cls-4 {
        fill: #fff;
      }
    </style>
  </defs>
  <title>encryption</title>
  <g id="Layer_2" data-name="Layer 2">
    <g id="Layer_2-2" data-name="Layer 2">
      <path class="cls-1" d="M37.31,7.74,34.6,7.56a21.6,21.6,0,0,1-12.14-4.7l-1-.84a2.23,2.23,0,0,0-2.8,0l-1,.84A21.6,21.6,0,0,1,5.49,7.57l-2.7.17A2.25,2.25,0,0,0,.69,10.13l.52,7.14A30.47,30.47,0,0,0,11.68,38.18l6.92,6a2.25,2.25,0,0,0,2.94,0l6.9-6A30.48,30.48,0,0,0,38.9,17.3l.52-7.15a2.25,2.25,0,0,0-2.07-2.41Z"/>
      <path class="cls-2" d="M37.31,7.74,34.6,7.56a21.6,21.6,0,0,1-12.14-4.7l-1-.84A2.24,2.24,0,0,0,20,1.55V44.76a2.24,2.24,0,0,0,1.47-.55l6.9-6A30.48,30.48,0,0,0,38.88,17.3l.52-7.15a2.25,2.25,0,0,0-2.07-2.41Z"/>
      <polygon class="cls-3" points="19.66 11.17 20.62 12.93 22.37 13.89 20.62 14.85 19.66 16.6 18.7 14.85 16.95 13.89 18.7 12.93 19.66 11.17"/>
      <polygon class="cls-3" points="8.98 22.8 9.64 24.01 10.86 24.67 9.64 25.33 8.98 26.55 8.31 25.33 7.11 24.67 8.31 24.01 8.98 22.8"/>
      <polygon class="cls-3" points="26.75 28.44 27.2 29.27 28.02 29.72 27.2 30.17 26.75 30.99 26.3 30.17 25.47 29.72 26.3 29.27 26.75 28.44"/>
      <path class="cls-4" d="M29.56,16.05,18.5,27.1l-5.65-5.65a.77.77,0,0,0-1.09,1.09l6.2,6.2a.77.77,0,0,0,1.09,0L30.66,17.13A.77.77,0,0,0,29.57,16Z"/>
      <path class="cls-3" d="M29.5,9.59a22.46,22.46,0,0,1-6.57-3.18L20.91,5a1.55,1.55,0,0,0-1.77,0l-2,1.37a22.46,22.46,0,0,1-11.38,4h-.5A.77.77,0,0,0,5.33,12h.56A24,24,0,0,0,18.06,7.69l2-1.39,2,1.39a24,24,0,0,0,7,3.38.77.77,0,1,0,.43-1.49h0Z"/>
      <path class="cls-3" d="M34.77,10.48h-.46c-.59,0-1.18-.1-1.77-.19a.78.78,0,0,0-.22,1.55h0c.62.09,1.25.16,1.89.2h.51a.77.77,0,1,0,.05-1.55Z"/>
      <path class="cls-3" d="M38,6.43l-2.8-.19A22.36,22.36,0,0,1,22.58,1.38L21.49.51a2.32,2.32,0,0,0-2.9,0l-1.08.87A22.34,22.34,0,0,1,5,6.25l-2.8.19A2.32,2.32,0,0,0,0,8.9l.54,8.91A31.55,31.55,0,0,0,11.39,39.49l7.15,6.2a2.32,2.32,0,0,0,3.05,0l7.15-6.2A31.56,31.56,0,0,0,39.58,17.81l.53-8.94A2.32,2.32,0,0,0,38,6.43ZM38,17.73a30,30,0,0,1-9.47,19.83V37.5a.77.77,0,1,0-1.55,0v1.43l-6.46,5.61a.77.77,0,0,1-1,0l-6.46-5.62V37.51a.77.77,0,1,0-1.55,0v0A30,30,0,0,1,2.09,17.74L1.55,8.8A.77.77,0,0,1,2.27,8l2.8-.19a23.89,23.89,0,0,0,13.4-5.2l1.08-.87a.77.77,0,0,1,1,0l1.08.87A23.9,23.9,0,0,0,35,7.8l2.8.19a.77.77,0,0,1,.72.82Z"/>
      <path class="cls-3" d="M17.17,36.74a.77.77,0,0,0-.77.77v1.55a.77.77,0,0,0,1.55,0V37.51A.77.77,0,0,0,17.17,36.74Z"/>
      <path class="cls-3" d="M21,36.74a.77.77,0,0,0-.77.77v1.55a.77.77,0,0,0,1.55,0V37.51A.77.77,0,0,0,21,36.74Z"/>
      <path class="cls-3" d="M24.92,36.74a.77.77,0,0,0-.77.77v1.55a.77.77,0,1,0,1.55,0V37.51A.77.77,0,0,0,24.92,36.74Z"/>
    </g>
  </g>
</svg>
