<svg id="Layer_2" data-name="Layer 2" xmlns="http://www.w3.org/2000/svg" viewBox="0 0 48 48"><defs><style>.cls-1{fill:#c5e4fa;}.cls-2{fill:#85cbf8;}.cls-3{fill:#1ca4f6;}</style></defs><title>safe-lock</title><path class="cls-1" d="M13.22,18.25V10.63S16,2.68,22.3,2A11.11,11.11,0,0,1,31.9,5.47,10.45,10.45,0,0,1,35,12.15a31.75,31.75,0,0,1,0,6.33L30.47,16s.91-9.91-6.31-10-6.62,9.34-6.62,9.34Z"/><rect class="cls-2" x="21.75" y="1.93" width="4.62" height="4.15"/><path class="cls-1" d="M39.8,30.47A15.8,15.8,0,0,1,24,46.27h-.19A15.8,15.8,0,0,1,8.2,30.47a10.5,10.5,0,0,1,.08-1.58A15.8,15.8,0,0,1,39.8,30.47Z"/><path class="cls-1" d="M21.24,41.22A3.59,3.59,0,0,1,24,44.72v.95l-.19.2A15.8,15.8,0,0,1,8.2,30.2H9.39a3.59,3.59,0,0,1,3.48,2.74A11.54,11.54,0,0,0,21.24,41.22Z"/><path class="cls-1" d="M26.76,19.15A3.59,3.59,0,0,1,24,15.65v-.95l.19-.2A15.8,15.8,0,0,1,39.8,30.17H38.61a3.59,3.59,0,0,1-3.48-2.72A11.54,11.54,0,0,0,26.76,19.15Z"/><path class="cls-2" d="M27.59,28.31a3.59,3.59,0,1,0-5.75,2.87v2.87A2.16,2.16,0,0,0,24,36.21h0a2.16,2.16,0,0,0,2.16-2.16V31.19A3.59,3.59,0,0,0,27.59,28.31Z"/><path class="cls-3" d="M35.49,18.61v-6.1a11.49,11.49,0,0,0-23,0v6.1A16.52,16.52,0,1,0,35.87,19ZM26.87,2.87a10.06,10.06,0,0,1,7.18,9.63v4.86a16.4,16.4,0,0,0-2.87-1.78V12.51a7.18,7.18,0,0,0-4.31-6.58Zm2.87,9.63V15a16.48,16.48,0,0,0-11.49,0V12.51a5.75,5.75,0,0,1,11.49,0ZM22.56,2.56a9.05,9.05,0,0,1,2.87,0V5.44a7.18,7.18,0,0,0-2.87,0Zm-8.62,9.94a10.06,10.06,0,0,1,7.18-9.63V5.93a7.18,7.18,0,0,0-4.31,6.58v3.08a16.4,16.4,0,0,0-2.87,1.78ZM24,45.55A15.09,15.09,0,0,1,12.51,20.71a14.71,14.71,0,0,1,1.44-1.48,15.33,15.33,0,0,1,2.87-2,14.63,14.63,0,0,1,1.44-.72,15,15,0,0,1,11.49,0,14.63,14.63,0,0,1,1.44.72,15.33,15.33,0,0,1,2.87,2,14.71,14.71,0,0,1,1.44,1.48A15.09,15.09,0,0,1,24,45.55Z"/><path class="cls-3" d="M12.86,33.39a.72.72,0,0,0,.57-.84A10.78,10.78,0,0,1,27.07,20.14a.72.72,0,0,0,.41-1.38A12.21,12.21,0,0,0,12,32.82a.72.72,0,0,0,.72.58Z"/><path class="cls-3" d="M33.92,23.34a.72.72,0,0,0-1.16.84,10.78,10.78,0,0,1-6.08,16.73A.72.72,0,0,0,27,42.31a12.21,12.21,0,0,0,6.9-19Z"/><path class="cls-3" d="M29.7,21.32a10.81,10.81,0,0,1,1.17.85.72.72,0,0,0,.92-1.11,12.26,12.26,0,0,0-1.33-1,.72.72,0,1,0-.76,1.22Z"/><path class="cls-3" d="M23.28,40.53a.72.72,0,0,0-.72.72v1.44a.72.72,0,1,0,1.44,0V41.24A.72.72,0,0,0,23.28,40.53Z"/><path class="cls-3" d="M20.08,40a.72.72,0,0,0-.92.43l-.49,1.35a.72.72,0,1,0,1.35.49l.49-1.35A.72.72,0,0,0,20.08,40Z"/><path class="cls-3" d="M16.26,38.43l-.93,1.1a.72.72,0,0,0,1.1.93l.93-1.1a.72.72,0,1,0-1.1-.93Z"/><path class="cls-3" d="M15.19,35.86a.72.72,0,0,0-1-.27h0L13,36.31a.72.72,0,0,0,.72,1.24l1.24-.72A.72.72,0,0,0,15.19,35.86Z"/><path class="cls-3" d="M26.87,31.51a4.2,4.2,0,1,0-5.75,0v2.55a2.87,2.87,0,1,0,5.75,0Zm-1.15-.91a.72.72,0,0,0-.29.57V34a1.44,1.44,0,1,1-2.87,0V31.19a.72.72,0,0,0-.29-.57,2.87,2.87,0,0,1,1.1-5.09,3.11,3.11,0,0,1,.63-.08,2.83,2.83,0,0,1,1.8.65,2.87,2.87,0,0,1-.09,4.51Z"/></svg>